Coordinates
version=1
nRows=12
nColumns=24
inDegrees=yes

Units are S.I. units (second, meters, Newtons, ...)
Angles are in degrees.

endheader
time	pelvis_tilt	pelvis_list	pelvis_rotation	pelvis_tx	pelvis_ty	pelvis_tz	hip_flexion_r	hip_adduction_r	hip_rotation_r	knee_angle_r	ankle_angle_r	subtalar_angle_r	mtp_angle_r	hip_flexion_l	hip_adduction_l	hip_rotation_l	knee_angle_l	ankle_angle_l	subtalar_angle_l	mtp_angle_l	lumbar_extension	lumbar_bending	lumbar_rotation
      3.70000000	     38.48776169	      3.37564381	     -2.03065247	      0.68817297	      1.06970361	     -0.33118921	     35.01809221	    -10.87350789	      5.85450197	    -71.46543898	    -25.20602947	      0.00000000	      0.00000000	     28.04511456	    -13.61932460	     -6.69797765	    -69.34021219	    -13.72100457	      0.00000000	      0.00000000	      0.00000000	      0.00000000	      0.00000000
      3.71000000	     38.51842819	      3.38044414	     -2.01095529	      0.68811163	      1.06969095	     -0.33118955	     34.98514435	    -10.87329412	      5.77811247	    -71.78296548	    -25.23944621	      0.00000000	      0.00000000	     28.02201950	    -13.60790417	     -6.68088528	    -69.34397964	    -13.71930749	      0.00000000	      0.00000000	      0.00000000	      0.00000000	      0.00000000
      3.72000000	     38.55868661	      3.38980878	     -1.98872618	      0.68807755	      1.06969449	     -0.33120172	     34.94105769	    -10.88697948	      5.71686948	    -72.11398163	    -25.26967418	      0.00000000	      0.00000000	     27.98782044	    -13.58883376	     -6.65923880	    -69.34939483	    -13.71889428	      0.00000000	      0.00000000	      0.00000000	      0.00000000	      0.00000000
      3.73000000	     38.60487549	      3.40184288	     -1.96778217	      0.68804616	      1.06970772	     -0.33121458	     34.89117709	    -10.91116827	      5.67161260	    -72.45660302	    -25.29817893	      0.00000000	      0.00000000	     27.94600820	    -13.56580378	     -6.63723599	    -69.35593575	    -13.71880962	      0.00000000	      0.00000000	      0.00000000	      0.00000000	      0.00000000
      3.74000000	     38.65295706	      3.41485618	     -1.95050337	      0.68799247	      1.06971435	     -0.33122070	     34.84177705	    -10.94151696	      5.64358727	    -72.80733053	    -25.32560413	      0.00000000	      0.00000000	     27.90160380	    -13.54280386	     -6.61813738	    -69.36329223	    -13.71832076	      0.00000000	      0.00000000	      0.00000000	      0.00000000	      0.00000000
      3.75000000	     38.69844566	      3.42749444	     -1.93805422	      0.68793103	      1.06970992	     -0.33121958	     34.79786897	    -10.97422464	      5.63360791	    -73.16200462	    -25.35177552	      0.00000000	      0.00000000	     27.85895871	    -13.52275596	     -6.60337373	    -69.37172599	    -13.71722286	      0.00000000	      0.00000000	      0.00000000	      0.00000000	      0.00000000
      3.76000000	     38.73750854	      3.43871177	     -1.93040282	      0.68791003	      1.06970574	     -0.33121800	     34.76180725	    -11.00732310	      5.64158520	    -73.51730778	    -25.37634810	      0.00000000	      0.00000000	     27.82078941	    -13.50689406	     -6.59255987	    -69.38165963	    -13.71586832	      0.00000000	      0.00000000	      0.00000000	      0.00000000	      0.00000000
      3.77000000	     38.76892185	      3.44804471	     -1.92602082	      0.68794443	      1.06971023	     -0.33122270	     34.73328988	    -11.04119743	      5.66660103	    -73.87164501	    -25.39953496	      0.00000000	      0.00000000	     27.78855162	    -13.49499339	     -6.58405773	    -69.39286664	    -13.71492763	      0.00000000	      0.00000000	      0.00000000	      0.00000000	      0.00000000
      3.78000000	     38.79463565	      3.45572316	     -1.92225529	      0.68797602	      1.06971390	     -0.33122833	     34.71052746	    -11.07811335	      5.70734211	    -74.22469657	    -25.42223795	      0.00000000	      0.00000000	     27.76282364	    -13.48597669	     -6.57579862	    -69.40432989	    -13.71500929	      0.00000000	      0.00000000	      0.00000000	      0.00000000	      0.00000000
      3.79000000	     38.81768069	      3.46235031	     -1.91694907	      0.68795056	      1.06970319	     -0.33122429	     34.69163559	    -11.12087098	      5.76259773	    -74.57604702	    -25.44538508	      0.00000000	      0.00000000	     27.74304613	    -13.47847117	     -6.56617981	    -69.41514213	    -13.71633165	      0.00000000	      0.00000000	      0.00000000	      0.00000000	      0.00000000
      3.80000000	     38.83946155	      3.46868131	     -1.90988017	      0.68789289	      1.06967761	     -0.33121069	     34.67555703	    -11.17108401	      5.83170338	    -74.92402433	    -25.46897523	      0.00000000	      0.00000000	     27.72767459	    -13.47125564	     -6.55475609	    -69.42536580	    -13.71859221	      0.00000000	      0.00000000	      0.00000000	      0.00000000	      0.00000000
      3.81000000	     38.85901391	      3.47551877	     -1.90254803	      0.68785683	      1.06964494	     -0.33119608	     34.66247560	    -11.22801440	      5.91499022	    -75.26568891	    -25.49161920	      0.00000000	      0.00000000	     27.71548697	    -13.46362926	     -6.54244560	    -69.43575051	    -13.72106160	      0.00000000	      0.00000000	      0.00000000	      0.00000000	      0.00000000
